<svg xmlns="http://www.w3.org/2000/svg" xmlns:xlink="http://www.w3.org/1999/xlink" width="2758.848" height="1628.429">
    <image overflow="visible" width="3170" height="2552" xlink:href="50C3B42D.png" transform="scale(.8703 .6381)" />
    <defs>
        <path id="a" d="M0 0h2758.848v1689.291H0z" />
    </defs>
    <clipPath id="b">
        <use xlink:href="#a" overflow="visible" />
    </clipPath>
    <g clip-path="url(#b)">
        <path fill="#ffffff" d="M0 0h2758.848v1688.265H0z" />
        <defs>
            <path id="c" d="M0 0h2758.848v1688.265H0z" />
        </defs>
        <defs>
            <path id="e" d="M0 0h2758.848v1688.265H0z" />
        </defs>
        <defs>
            <path id="g" d="M0 0h2758.848v1688.265H0z" />
        </defs>
        <clipPath id="d">
            <use xlink:href="#c" overflow="visible" />
        </clipPath>
        <clipPath id="f" clip-path="url(#d)">
            <use xlink:href="#e" overflow="visible" />
        </clipPath>
        <clipPath id="h" clip-path="url(#f)">
            <use xlink:href="#g" overflow="visible" />
        </clipPath>
        <linearGradient id="i" gradientUnits="userSpaceOnUse" x1="-263.01" y1="270.334" x2="199.714" y2="733.058"
            gradientTransform="matrix(1 0 0 -1 0 1629.429)">
            <stop offset=".313" stop-color="#e9e9ff" stop-opacity="0" />
            <stop offset=".828" stop-color="#e4e4ff" stop-opacity=".75" />
            <stop offset="1" stop-color="#e1e1ff" />
        </linearGradient>
        <path clip-path="url(#h)" fill="url(#i)"
            d="M295.547 1127.736c0 180.701-146.491 327.193-327.198 327.193-180.702 0-327.192-146.492-327.192-327.193 0-180.707 146.49-327.199 327.192-327.199 180.707 0 327.198 146.492 327.198 327.199z" />
        <linearGradient id="j" gradientUnits="userSpaceOnUse" x1="574.054" y1="1007.309" x2="777.501" y2="1210.755"
            gradientTransform="matrix(1 0 0 -1 0 1629.429)">
            <stop offset="0" stop-color="#e9e9ff" stop-opacity="0" />
            <stop offset=".75" stop-color="#e4e4ff" stop-opacity=".75" />
            <stop offset="1" stop-color="#e1e1ff" />
        </linearGradient>
        <path clip-path="url(#h)" fill="url(#j)"
            d="M819.634 520.395c0 79.454-64.401 143.859-143.854 143.859-79.453 0-143.862-64.405-143.862-143.859 0-79.448 64.409-143.856 143.862-143.856 79.451-.002 143.854 64.406 143.854 143.856z" />
        <linearGradient id="k" gradientUnits="userSpaceOnUse" x1="685.852" y1="166.271" x2="1368.001" y2="-515.878"
            gradientTransform="matrix(1 0 0 -1 0 1629.429)">
            <stop offset="0" stop-color="#e1e1ff" />
            <stop offset=".25" stop-color="#e4e4ff" stop-opacity=".75" />
            <stop offset="1" stop-color="#e9e9ff" stop-opacity="0" />
        </linearGradient>
        <circle clip-path="url(#h)" fill="url(#k)" cx="1026.926" cy="1804.232" r="482.352" />
        <defs>
            <path id="l" d="M0 0h2758.848v1689.291H0z" />
        </defs>
        <clipPath id="m">
            <use xlink:href="#l" overflow="visible" />
        </clipPath>
        <g clip-path="url(#m)">
            <linearGradient id="n" gradientUnits="userSpaceOnUse" x1="1311.482" y1="1762.091" x2="2852.673" y2="220.9"
                gradientTransform="matrix(1 0 0 -1 0 1629.429)">
                <stop offset=".387" stop-color="#ffcc00" />
                <stop offset=".944" stop-color="#ffcc00" />
            </linearGradient>
            <path fill="#2bb3bf"
                d="M1029.129 259.267c-49.604 85.922-49.604 191.774 0 277.697l477.213 826.547c49.606 85.918 141.274 138.844 240.487 138.844h1012.019V0H1178.819l-149.69 259.267z" />
            <defs>
                <path id="o"
                    d="M1029.129 259.267c-49.604 85.922-49.604 191.774 0 277.697l477.213 826.547c49.606 85.918 141.274 138.844 240.487 138.844h1012.019V0H1178.819l-149.69 259.267z" />
            </defs>
            <defs>
                <path id="q"
                    d="M1029.129 259.267c-49.604 85.922-49.604 191.774 0 277.697l477.213 826.547c49.606 85.918 141.274 138.844 240.487 138.844h1012.019V0H1178.819l-149.69 259.267z" />
            </defs>
            <defs>
                <path id="s"
                    d="M1029.129 259.267c-49.604 85.922-49.604 191.774 0 277.697l477.213 826.547c49.606 85.918 141.274 138.844 240.487 138.844h1012.019V0H1178.819l-149.69 259.267z" />
            </defs>
            <clipPath id="p">
                <use xlink:href="#o" overflow="visible" />
            </clipPath>
            <clipPath id="r" clip-path="url(#p)">
                <use xlink:href="#q" overflow="visible" />
            </clipPath>
            <clipPath id="t" clip-path="url(#r)">
                <use xlink:href="#s" overflow="visible" />
            </clipPath>
            <linearGradient id="u" gradientUnits="userSpaceOnUse" x1="1961.762" y1="1422.252" x2="2521.587" y2="862.428"
                gradientTransform="matrix(1 0 0 -1 0 1629.429)">
                <stop offset="0" stop-color="#8c50ff" />
                <stop offset=".717" stop-color="#8c50ff" stop-opacity="0" />
            </linearGradient>
            
        </g>
    </g>
</svg>